<svg xmlns="http://www.w3.org/2000/svg" xmlns:xlink="http://www.w3.org/1999/xlink" width="596" zoomAndPan="magnify" viewBox="0 0 446.88 303.749993" height="405" preserveAspectRatio="xMidYMid meet" version="1.0"><defs><g/><clipPath id="aec3f25198"><path d="M 0.125 0 L 446.636719 0 L 446.636719 303.5 L 0.125 303.5 Z M 0.125 0 " clip-rule="nonzero"/></clipPath><clipPath id="d0014ce3bf"><path d="M 269 122.175781 L 371 122.175781 L 371 228.585938 L 269 228.585938 Z M 269 122.175781 " clip-rule="nonzero"/></clipPath><clipPath id="d8cafd93de"><path d="M 86 96 L 322 96 L 322 180 L 86 180 Z M 86 96 " clip-rule="nonzero"/></clipPath><clipPath id="444adb9022"><path d="M 321.363281 132.429688 L 87.132812 180.214844 L 75.449219 122.941406 L 309.679688 75.15625 Z M 321.363281 132.429688 " clip-rule="nonzero"/></clipPath><clipPath id="f93a2bb57c"><path d="M 321.363281 132.429688 L 87.132812 180.214844 L 75.449219 122.941406 L 309.679688 75.15625 Z M 321.363281 132.429688 " clip-rule="nonzero"/></clipPath></defs><g clip-path="url(#aec3f25198)"><path fill="#ffffff" d="M 0.125 0 L 446.757812 0 L 446.757812 310.246094 L 0.125 310.246094 Z M 0.125 0 " fill-opacity="1" fill-rule="nonzero"/><path fill="#ffffff" d="M 0.125 0 L 446.757812 0 L 446.757812 303.5 L 0.125 303.5 Z M 0.125 0 " fill-opacity="1" fill-rule="nonzero"/></g><g clip-path="url(#d0014ce3bf)"><path fill="#ffde59" d="M 300.800781 157.855469 C 301.300781 157.886719 301.804688 157.890625 302.292969 157.957031 C 304.40625 158.25 305.292969 157.765625 306.175781 155.765625 C 307.679688 152.351562 309.074219 148.886719 310.703125 145.535156 C 313.558594 139.660156 316.570312 133.863281 319.488281 128.015625 C 320.203125 126.582031 320.792969 125.082031 321.464844 123.625 C 321.996094 122.46875 323.035156 122.25 324.164062 122.289062 C 325.222656 122.324219 325.347656 123.199219 325.628906 123.957031 C 329.203125 133.65625 331.394531 143.730469 333.753906 153.761719 C 333.917969 154.472656 334.015625 155.199219 334.179688 155.914062 C 334.523438 157.441406 334.914062 157.785156 336.457031 157.792969 C 339.84375 157.8125 343.226562 157.78125 346.613281 157.800781 C 350.535156 157.824219 354.453125 157.839844 358.371094 157.925781 C 361.792969 158 365.210938 158.164062 368.625 158.285156 C 369.484375 158.3125 370.363281 158.289062 370.777344 159.261719 C 371.179688 160.21875 370.828125 161.046875 370.105469 161.644531 C 367.003906 164.214844 363.972656 166.894531 360.710938 169.25 C 354.441406 173.773438 348.035156 178.105469 341.6875 182.519531 C 340.367188 183.441406 340.179688 183.894531 340.605469 185.445312 C 343.960938 197.679688 347.324219 209.914062 350.695312 222.144531 C 350.828125 222.625 351.054688 223.074219 351.230469 223.539062 C 351.816406 225.097656 351.574219 226.457031 350.554688 227.371094 C 349.5 228.316406 347.972656 228.53125 346.59375 227.601562 C 344.589844 226.25 342.644531 224.792969 340.800781 223.226562 C 332.714844 216.34375 324.671875 209.40625 316.628906 202.480469 C 315.941406 201.890625 315.367188 201.402344 314.441406 202.148438 C 307.386719 207.855469 300.273438 213.496094 293.257812 219.253906 C 291.214844 220.933594 289.433594 222.929688 287.539062 224.785156 C 287.101562 225.214844 286.699219 225.6875 286.246094 226.101562 C 285.136719 227.113281 283.949219 227.359375 282.988281 226.808594 C 281.949219 226.210938 281.519531 225.109375 281.890625 223.578125 C 284.328125 213.519531 287.285156 203.613281 290.734375 193.855469 C 291.65625 191.242188 292.65625 188.660156 293.621094 186.066406 C 294.191406 184.523438 294.089844 183.917969 292.824219 182.941406 C 287.796875 179.070312 282.746094 175.230469 277.703125 171.378906 C 275.625 169.792969 273.53125 168.222656 271.460938 166.628906 C 271.039062 166.300781 270.640625 165.921875 270.296875 165.515625 C 268.519531 163.398438 269.460938 160.605469 272.183594 160.183594 C 274.800781 159.78125 277.449219 159.523438 280.09375 159.3125 C 286.988281 158.769531 293.890625 158.285156 300.789062 157.78125 C 300.796875 157.804688 300.800781 157.828125 300.800781 157.855469 Z M 316.164062 193.890625 C 324.761719 201.617188 333.511719 209.175781 343.066406 216.070312 C 342.71875 214.863281 342.457031 213.878906 342.148438 212.910156 C 338.933594 202.816406 335.84375 192.695312 334.015625 182.234375 C 333.894531 181.550781 334.035156 181.265625 334.511719 180.941406 C 336.535156 179.578125 338.539062 178.195312 340.566406 176.839844 C 346.828125 172.644531 353.09375 168.460938 359.355469 164.269531 C 359.683594 164.050781 360 163.8125 360.324219 163.585938 C 360.292969 163.476562 360.261719 163.367188 360.230469 163.261719 C 349.851562 163.261719 339.472656 163.261719 329.042969 163.261719 C 328.222656 152.726562 325.460938 142.765625 323.511719 132.625 C 323.125 133.003906 322.929688 133.367188 322.746094 133.738281 C 318.128906 143.035156 313.503906 152.324219 308.914062 161.632812 C 308.484375 162.503906 307.980469 162.832031 306.984375 162.824219 C 303.679688 162.796875 300.375 162.878906 297.070312 162.941406 C 292.6875 163.023438 288.304688 163.066406 283.925781 163.238281 C 281.457031 163.335938 279 163.652344 276.226562 163.894531 C 276.777344 164.371094 277.042969 164.640625 277.34375 164.855469 C 279.742188 166.59375 282.125 168.355469 284.558594 170.039062 C 289.476562 173.445312 294.414062 176.820312 299.378906 180.164062 C 300.332031 180.808594 300.550781 181.410156 300.042969 182.480469 C 299.308594 184.03125 298.667969 185.632812 298.117188 187.253906 C 295.410156 195.257812 292.726562 203.269531 290.074219 211.292969 C 289.382812 213.378906 288.824219 215.507812 288.183594 217.6875 C 297.535156 209.734375 306.769531 201.878906 316.164062 193.890625 Z M 316.164062 193.890625 " fill-opacity="1" fill-rule="nonzero"/></g><g fill="#ffde59" fill-opacity="1"><g transform="translate(84.914235, 198.303548)"><g><path d="M 14.203125 -9.78125 C 14.378906 -9.6875 14.457031 -9.53125 14.4375 -9.3125 C 14.425781 -9.101562 14.363281 -8.914062 14.25 -8.75 C 13.363281 -7.425781 12.410156 -6.257812 11.390625 -5.25 C 10.378906 -4.238281 9.265625 -3.476562 8.046875 -2.96875 C 6.828125 -2.46875 5.429688 -2.332031 3.859375 -2.5625 C 2.804688 -2.726562 2.015625 -3.082031 1.484375 -3.625 C 0.953125 -4.175781 0.554688 -4.953125 0.296875 -5.953125 C -0.128906 -7.523438 -0.226562 -9.144531 0 -10.8125 C 0.195312 -11.769531 0.796875 -12.269531 1.796875 -12.3125 C 2.691406 -12.3125 3.179688 -11.910156 3.265625 -11.109375 C 3.285156 -10.441406 3.285156 -9.785156 3.265625 -9.140625 C 3.265625 -9.046875 3.265625 -8.957031 3.265625 -8.875 C 3.210938 -7.09375 3.5 -5.875 4.125 -5.21875 C 4.757812 -4.5625 5.582031 -4.390625 6.59375 -4.703125 C 7.613281 -5.015625 8.695312 -5.726562 9.84375 -6.84375 C 9.976562 -6.988281 10.148438 -7.1875 10.359375 -7.4375 C 10.578125 -7.6875 10.816406 -7.929688 11.078125 -8.171875 C 11.441406 -8.554688 11.742188 -8.878906 11.984375 -9.140625 C 12.703125 -9.847656 13.441406 -10.0625 14.203125 -9.78125 Z M 1.546875 -15.1875 C 0.742188 -15.238281 0.285156 -15.664062 0.171875 -16.46875 C 0.078125 -17.09375 0.175781 -17.691406 0.46875 -18.265625 C 0.726562 -18.765625 1.148438 -19.101562 1.734375 -19.28125 C 2.316406 -19.46875 2.867188 -19.414062 3.390625 -19.125 C 3.585938 -19.019531 3.726562 -18.875 3.8125 -18.6875 C 3.894531 -18.5 3.925781 -18.347656 3.90625 -18.234375 C 3.875 -16.171875 3.085938 -15.15625 1.546875 -15.1875 Z M 1.546875 -15.1875 "/></g></g></g><g fill="#ffde59" fill-opacity="1"><g transform="translate(96.875882, 198.303548)"><g><path d="M 17.875 -9.8125 C 18.019531 -9.789062 18.117188 -9.75 18.171875 -9.6875 C 18.222656 -9.632812 18.28125 -9.519531 18.34375 -9.34375 C 18.394531 -9.175781 18.335938 -8.972656 18.171875 -8.734375 C 18.003906 -8.503906 17.847656 -8.316406 17.703125 -8.171875 C 16.628906 -7.171875 15.378906 -6.570312 13.953125 -6.375 C 13.128906 -6.257812 12.304688 -6.226562 11.484375 -6.28125 C 10.671875 -6.34375 9.867188 -6.546875 9.078125 -6.890625 C 8.503906 -7.171875 7.96875 -7.085938 7.46875 -6.640625 C 6.445312 -5.703125 5.375 -4.800781 4.25 -3.9375 C 3.675781 -3.507812 3.070312 -3.148438 2.4375 -2.859375 C 1.8125 -2.578125 1.128906 -2.414062 0.390625 -2.375 C -1.785156 -2.414062 -2.644531 -3.476562 -2.1875 -5.5625 C -2.15625 -5.65625 -2.125 -5.726562 -2.09375 -5.78125 C -1.46875 -7.46875 -0.640625 -8.988281 0.390625 -10.34375 C 1.421875 -11.707031 2.722656 -12.847656 4.296875 -13.765625 C 5.335938 -14.367188 6.457031 -14.601562 7.65625 -14.46875 C 7.96875 -14.394531 8.265625 -14.273438 8.546875 -14.109375 C 8.898438 -13.941406 9.046875 -13.671875 8.984375 -13.296875 C 8.953125 -13.171875 8.894531 -13.066406 8.8125 -12.984375 C 8.726562 -12.898438 8.640625 -12.820312 8.546875 -12.75 C 8.492188 -12.675781 8.425781 -12.625 8.34375 -12.59375 C 8.257812 -12.570312 8.171875 -12.5625 8.078125 -12.5625 C 7.222656 -12.539062 6.484375 -12.289062 5.859375 -11.8125 C 5.242188 -11.34375 4.679688 -10.804688 4.171875 -10.203125 C 3.597656 -9.566406 3.066406 -8.863281 2.578125 -8.09375 C 2.097656 -7.332031 1.703125 -6.414062 1.390625 -5.34375 C 2.535156 -6.007812 3.429688 -6.664062 4.078125 -7.3125 C 4.222656 -7.457031 4.367188 -7.585938 4.515625 -7.703125 C 4.628906 -7.828125 4.742188 -7.929688 4.859375 -8.015625 C 5.429688 -8.554688 6.03125 -9.023438 6.65625 -9.421875 C 7.375 -9.828125 8.082031 -10.03125 8.78125 -10.03125 C 9.488281 -10.03125 10.171875 -9.742188 10.828125 -9.171875 C 11.742188 -8.367188 12.628906 -8.050781 13.484375 -8.21875 C 14.347656 -8.394531 15.148438 -8.703125 15.890625 -9.140625 C 16.640625 -9.585938 17.300781 -9.8125 17.875 -9.8125 Z M 17.875 -9.8125 "/></g></g></g><g fill="#ffde59" fill-opacity="1"><g transform="translate(113.403637, 198.303548)"><g><path d="M 27.046875 -9.859375 C 27.304688 -9.878906 27.515625 -9.84375 27.671875 -9.75 C 27.828125 -9.65625 27.90625 -9.460938 27.90625 -9.171875 C 27.957031 -9.023438 27.90625 -8.816406 27.75 -8.546875 C 27.59375 -8.273438 27.410156 -8.007812 27.203125 -7.75 C 27.003906 -7.5 26.851562 -7.316406 26.75 -7.203125 C 25.800781 -6.203125 24.753906 -5.539062 23.609375 -5.21875 C 22.460938 -4.90625 21.234375 -4.863281 19.921875 -5.09375 C 19.285156 -5.207031 18.734375 -5.460938 18.265625 -5.859375 C 17.796875 -6.253906 17.382812 -6.738281 17.03125 -7.3125 C 17.007812 -7.351562 16.984375 -7.390625 16.953125 -7.421875 C 16.554688 -8.066406 16.113281 -8.707031 15.625 -9.34375 C 15.394531 -9.65625 15.171875 -9.8125 14.953125 -9.8125 C 14.742188 -9.8125 14.492188 -9.671875 14.203125 -9.390625 C 13.347656 -8.578125 12.609375 -7.671875 11.984375 -6.671875 C 11.378906 -5.785156 10.519531 -5.390625 9.40625 -5.484375 C 8.570312 -5.535156 8.023438 -5.960938 7.765625 -6.765625 C 7.710938 -6.960938 7.6875 -7.164062 7.6875 -7.375 C 7.625 -8.40625 7.398438 -8.703125 7.015625 -8.265625 C 6.628906 -7.835938 6.25 -7.253906 5.875 -6.515625 C 5.726562 -6.234375 5.554688 -5.945312 5.359375 -5.65625 C 5.171875 -5.300781 4.972656 -4.957031 4.765625 -4.625 C 4.566406 -4.25 4.351562 -3.878906 4.125 -3.515625 C 3.71875 -2.941406 3.15625 -2.625 2.4375 -2.5625 C 1.125 -2.4375 0.382812 -3.007812 0.21875 -4.28125 C 0.164062 -5.363281 0.117188 -6.445312 0.078125 -7.53125 C 0.046875 -8.03125 0.0195312 -8.53125 0 -9.03125 C -0.0195312 -9.46875 -0.03125 -9.914062 -0.03125 -10.375 C -0.101562 -11.175781 -0.148438 -11.96875 -0.171875 -12.75 C -0.203125 -13.769531 0.269531 -14.320312 1.25 -14.40625 C 2.300781 -14.5 2.910156 -14.066406 3.078125 -13.109375 C 3.203125 -12.253906 3.296875 -11.394531 3.359375 -10.53125 C 3.359375 -9.96875 3.421875 -9.625 3.546875 -9.5 C 3.671875 -9.375 3.789062 -9.347656 3.90625 -9.421875 C 4.019531 -9.492188 4.132812 -9.597656 4.25 -9.734375 C 4.25 -9.734375 4.25 -9.75 4.25 -9.78125 C 4.375 -9.925781 4.488281 -10.066406 4.59375 -10.203125 C 4.875 -10.609375 5.175781 -10.976562 5.5 -11.3125 C 6.363281 -12.0625 7.367188 -12.375 8.515625 -12.25 C 9.515625 -12.175781 10.226562 -11.695312 10.65625 -10.8125 C 10.800781 -10.488281 11.03125 -10.441406 11.34375 -10.671875 C 11.65625 -10.910156 12.070312 -11.1875 12.59375 -11.5 C 13.125 -11.8125 13.707031 -12.023438 14.34375 -12.140625 C 15.851562 -12.453125 17.140625 -12.0625 18.203125 -10.96875 C 18.691406 -10.4375 19.160156 -9.851562 19.609375 -9.21875 C 19.648438 -9.164062 19.695312 -9.101562 19.75 -9.03125 C 19.863281 -8.863281 19.976562 -8.679688 20.09375 -8.484375 C 20.175781 -8.316406 20.273438 -8.144531 20.390625 -7.96875 C 20.867188 -7.34375 21.375 -7.019531 21.90625 -7 C 22.445312 -6.988281 22.976562 -7.15625 23.5 -7.5 C 24.03125 -7.84375 24.539062 -8.234375 25.03125 -8.671875 C 25.425781 -9.003906 25.789062 -9.285156 26.125 -9.515625 C 26.457031 -9.742188 26.765625 -9.859375 27.046875 -9.859375 Z M 27.046875 -9.859375 "/></g></g></g><g fill="#ffde59" fill-opacity="1"><g transform="translate(139.161168, 198.303548)"><g><path d="M 54.453125 -9.78125 C 54.648438 -9.519531 54.644531 -9.171875 54.4375 -8.734375 C 54.238281 -8.304688 53.445312 -7.785156 52.0625 -7.171875 C 50.675781 -6.554688 49.09375 -6.003906 47.3125 -5.515625 C 47 -5.460938 46.671875 -5.40625 46.328125 -5.34375 C 45.660156 -5.269531 45.300781 -4.898438 45.25 -4.234375 C 45.082031 -2.828125 44.859375 -1.441406 44.578125 -0.078125 C 43.503906 4.828125 41.335938 9.179688 38.078125 12.984375 C 34.472656 17.128906 30.21875 20.414062 25.3125 22.84375 C 20.40625 25.28125 15.21875 26.71875 9.75 27.15625 C 4.28125 27.601562 -1.066406 26.96875 -6.296875 25.25 C -8.941406 24.394531 -11.378906 23.164062 -13.609375 21.5625 C -14.867188 20.675781 -15.941406 19.632812 -16.828125 18.4375 C -18.578125 15.945312 -18.691406 13.375 -17.171875 10.71875 C -16.191406 9.050781 -14.769531 7.585938 -12.90625 6.328125 C -11.050781 5.066406 -8.96875 3.976562 -6.65625 3.0625 C -4.34375 2.15625 -2 1.378906 0.375 0.734375 C 2.75 0.0859375 4.957031 -0.476562 7 -0.96875 C 7.625 -1.144531 8.238281 -1.300781 8.84375 -1.4375 C 9.476562 -1.613281 9.8125 -2.03125 9.84375 -2.6875 C 9.84375 -2.832031 9.851562 -2.976562 9.875 -3.125 C 9.875 -3.320312 9.875 -3.503906 9.875 -3.671875 C 9.90625 -4.210938 9.929688 -4.757812 9.953125 -5.3125 C 10.160156 -10.632812 10.332031 -15.960938 10.46875 -21.296875 C 10.613281 -26.640625 10.617188 -31.972656 10.484375 -37.296875 C 10.453125 -38.328125 10.378906 -39.351562 10.265625 -40.375 C 10.203125 -40.925781 10.144531 -41.472656 10.09375 -42.015625 C 10 -42.898438 10.285156 -43.425781 10.953125 -43.59375 C 12.097656 -43.851562 12.828125 -43.5 13.140625 -42.53125 C 13.347656 -41.726562 13.476562 -40.910156 13.53125 -40.078125 C 13.84375 -36.703125 13.984375 -33.316406 13.953125 -29.921875 C 13.953125 -29.628906 13.96875 -29.34375 14 -29.0625 C 14 -28.945312 14 -28.84375 14 -28.75 C 14.164062 -28.632812 14.3125 -28.59375 14.4375 -28.625 C 14.570312 -28.65625 14.6875 -28.707031 14.78125 -28.78125 C 16.75 -30.757812 18.644531 -32.785156 20.46875 -34.859375 C 22.300781 -36.941406 24.003906 -39.160156 25.578125 -41.515625 C 26.898438 -43.421875 27.914062 -45.492188 28.625 -47.734375 C 28.882812 -48.703125 29.015625 -49.6875 29.015625 -50.6875 C 28.960938 -52.519531 28.328125 -53.828125 27.109375 -54.609375 C 25.898438 -55.398438 24.359375 -55.816406 22.484375 -55.859375 C 20.609375 -55.910156 18.640625 -55.71875 16.578125 -55.28125 C 14.515625 -54.851562 12.609375 -54.332031 10.859375 -53.71875 C 9.109375 -53.101562 7.765625 -52.539062 6.828125 -52.03125 C 5.617188 -51.394531 4.535156 -50.617188 3.578125 -49.703125 C 3.535156 -49.679688 3.5 -49.648438 3.46875 -49.609375 C 3.15625 -49.359375 2.914062 -49.070312 2.75 -48.75 C 2.582031 -48.4375 2.609375 -48.050781 2.828125 -47.59375 C 2.890625 -47.425781 2.851562 -47.273438 2.71875 -47.140625 C 2.59375 -47.015625 2.460938 -46.925781 2.328125 -46.875 C 1.921875 -46.726562 1.503906 -46.65625 1.078125 -46.65625 C 0.359375 -46.59375 -0.210938 -46.863281 -0.640625 -47.46875 C -0.835938 -47.789062 -0.882812 -48.097656 -0.78125 -48.390625 C -0.6875 -48.691406 -0.539062 -48.972656 -0.34375 -49.234375 C -0.34375 -49.265625 -0.328125 -49.28125 -0.296875 -49.28125 C 0.128906 -49.96875 0.632812 -50.566406 1.21875 -51.078125 C 1.8125 -51.597656 2.453125 -52.070312 3.140625 -52.5 C 6.148438 -54.476562 9.535156 -55.894531 13.296875 -56.75 C 17.054688 -57.613281 20.722656 -57.898438 24.296875 -57.609375 C 25.816406 -57.460938 27.25 -57.0625 28.59375 -56.40625 C 31.425781 -54.945312 32.65625 -52.628906 32.28125 -49.453125 C 31.988281 -47.617188 31.4375 -45.882812 30.625 -44.25 C 29.1875 -41.414062 27.445312 -38.785156 25.40625 -36.359375 C 22.875 -33.265625 20.1875 -30.3125 17.34375 -27.5 C 16.320312 -26.46875 15.835938 -25.847656 15.890625 -25.640625 C 15.941406 -25.441406 16.46875 -25.40625 17.46875 -25.53125 C 17.675781 -25.53125 17.910156 -25.539062 18.171875 -25.5625 C 20.390625 -25.707031 22.671875 -25.78125 25.015625 -25.78125 C 27.367188 -25.78125 29.648438 -25.550781 31.859375 -25.09375 C 34.066406 -24.644531 36.09375 -23.820312 37.9375 -22.625 C 39.78125 -21.4375 41.328125 -19.71875 42.578125 -17.46875 C 43.929688 -14.945312 44.78125 -12.265625 45.125 -9.421875 C 45.144531 -9.253906 45.15625 -9.085938 45.15625 -8.921875 C 45.25 -8.109375 45.757812 -7.734375 46.6875 -7.796875 C 47.625 -7.859375 48.722656 -8.085938 49.984375 -8.484375 C 51.242188 -8.890625 52.253906 -9.269531 53.015625 -9.625 C 53.785156 -9.988281 54.265625 -10.039062 54.453125 -9.78125 Z M 41.71875 -3.984375 C 41.757812 -4.179688 41.722656 -4.335938 41.609375 -4.453125 C 41.492188 -4.566406 41.335938 -4.625 41.140625 -4.625 C 40.046875 -4.507812 38.953125 -4.394531 37.859375 -4.28125 C 37.710938 -4.25 37.570312 -4.222656 37.4375 -4.203125 C 32.226562 -3.535156 27.144531 -2.710938 22.1875 -1.734375 C 19.394531 -1.222656 16.550781 -0.742188 13.65625 -0.296875 C 12.851562 -0.148438 12.476562 0.3125 12.53125 1.09375 C 12.5 1.425781 12.457031 1.75 12.40625 2.0625 C 12.289062 2.5 12.003906 2.773438 11.546875 2.890625 C 11.054688 3.054688 10.570312 3.039062 10.09375 2.84375 C 9.851562 2.726562 9.707031 2.585938 9.65625 2.421875 C 9.601562 2.253906 9.5625 2.066406 9.53125 1.859375 C 9.53125 1.773438 9.515625 1.6875 9.484375 1.59375 C 9.429688 1.257812 9.335938 1.039062 9.203125 0.9375 C 9.078125 0.832031 8.859375 0.8125 8.546875 0.875 C 7.453125 1.039062 5.988281 1.363281 4.15625 1.84375 C 2.332031 2.320312 0.351562 2.929688 -1.78125 3.671875 C -3.914062 4.410156 -5.960938 5.28125 -7.921875 6.28125 C -9.890625 7.28125 -11.515625 8.398438 -12.796875 9.640625 C -14.085938 10.890625 -14.816406 12.238281 -14.984375 13.6875 C -15.148438 15.132812 -14.519531 16.6875 -13.09375 18.34375 C -11.851562 19.71875 -10.410156 20.820312 -8.765625 21.65625 C -3.953125 24.09375 1.054688 25.300781 6.265625 25.28125 C 11.484375 25.257812 16.5 24.191406 21.3125 22.078125 C 26.132812 19.960938 30.363281 16.972656 34 13.109375 C 37.613281 9.296875 40.003906 4.816406 41.171875 -0.328125 C 41.398438 -1.410156 41.570312 -2.523438 41.6875 -3.671875 C 41.6875 -3.785156 41.695312 -3.890625 41.71875 -3.984375 Z M 40.609375 -6.671875 C 41.128906 -6.734375 41.472656 -6.851562 41.640625 -7.03125 C 41.816406 -7.21875 41.878906 -7.570312 41.828125 -8.09375 C 41.648438 -10.5 41.101562 -12.835938 40.1875 -15.109375 C 39.101562 -17.640625 37.664062 -19.554688 35.875 -20.859375 C 34.09375 -22.171875 32.082031 -23.03125 29.84375 -23.4375 C 27.601562 -23.851562 25.273438 -24.007812 22.859375 -23.90625 C 20.453125 -23.8125 18.082031 -23.632812 15.75 -23.375 C 15.40625 -23.351562 15.066406 -23.316406 14.734375 -23.265625 C 14.242188 -23.203125 13.929688 -23.003906 13.796875 -22.671875 C 13.671875 -22.347656 13.625 -21.972656 13.65625 -21.546875 C 13.65625 -21.484375 13.65625 -21.4375 13.65625 -21.40625 C 13.570312 -16.59375 13.328125 -11.539062 12.921875 -6.25 C 12.921875 -6.195312 12.921875 -6.109375 12.921875 -5.984375 C 12.921875 -5.617188 12.921875 -5.132812 12.921875 -4.53125 C 12.835938 -3.445312 12.910156 -2.8125 13.140625 -2.625 C 13.367188 -2.4375 14.007812 -2.472656 15.0625 -2.734375 C 16.238281 -2.929688 17.398438 -3.144531 18.546875 -3.375 C 22.179688 -4.0625 25.847656 -4.660156 29.546875 -5.171875 C 33.222656 -5.660156 36.910156 -6.160156 40.609375 -6.671875 Z M 40.609375 -6.671875 "/></g></g></g><g fill="#ffde59" fill-opacity="1"><g transform="translate(192.432425, 198.303548)"><g><path d="M 14.203125 -9.78125 C 14.378906 -9.6875 14.457031 -9.53125 14.4375 -9.3125 C 14.425781 -9.101562 14.363281 -8.914062 14.25 -8.75 C 13.363281 -7.425781 12.410156 -6.257812 11.390625 -5.25 C 10.378906 -4.238281 9.265625 -3.476562 8.046875 -2.96875 C 6.828125 -2.46875 5.429688 -2.332031 3.859375 -2.5625 C 2.804688 -2.726562 2.015625 -3.082031 1.484375 -3.625 C 0.953125 -4.175781 0.554688 -4.953125 0.296875 -5.953125 C -0.128906 -7.523438 -0.226562 -9.144531 0 -10.8125 C 0.195312 -11.769531 0.796875 -12.269531 1.796875 -12.3125 C 2.691406 -12.3125 3.179688 -11.910156 3.265625 -11.109375 C 3.285156 -10.441406 3.285156 -9.785156 3.265625 -9.140625 C 3.265625 -9.046875 3.265625 -8.957031 3.265625 -8.875 C 3.210938 -7.09375 3.5 -5.875 4.125 -5.21875 C 4.757812 -4.5625 5.582031 -4.390625 6.59375 -4.703125 C 7.613281 -5.015625 8.695312 -5.726562 9.84375 -6.84375 C 9.976562 -6.988281 10.148438 -7.1875 10.359375 -7.4375 C 10.578125 -7.6875 10.816406 -7.929688 11.078125 -8.171875 C 11.441406 -8.554688 11.742188 -8.878906 11.984375 -9.140625 C 12.703125 -9.847656 13.441406 -10.0625 14.203125 -9.78125 Z M 1.546875 -15.1875 C 0.742188 -15.238281 0.285156 -15.664062 0.171875 -16.46875 C 0.078125 -17.09375 0.175781 -17.691406 0.46875 -18.265625 C 0.726562 -18.765625 1.148438 -19.101562 1.734375 -19.28125 C 2.316406 -19.46875 2.867188 -19.414062 3.390625 -19.125 C 3.585938 -19.019531 3.726562 -18.875 3.8125 -18.6875 C 3.894531 -18.5 3.925781 -18.347656 3.90625 -18.234375 C 3.875 -16.171875 3.085938 -15.15625 1.546875 -15.1875 Z M 1.546875 -15.1875 "/></g></g></g><g fill="#ffde59" fill-opacity="1"><g transform="translate(204.394072, 198.303548)"><g><path d="M 24.390625 -52.40625 C 22.847656 -53.445312 21.222656 -54.15625 19.515625 -54.53125 C 17.804688 -54.914062 16.035156 -54.882812 14.203125 -54.4375 C 11.910156 -53.832031 9.800781 -52.71875 7.875 -51.09375 C 5.945312 -49.476562 4.414062 -47.503906 3.28125 -45.171875 C 2.144531 -42.835938 1.632812 -40.285156 1.75 -37.515625 C 1.925781 -34.191406 2.90625 -31.140625 4.6875 -28.359375 C 5.445312 -27.179688 6.269531 -26.054688 7.15625 -24.984375 C 7.507812 -24.484375 7.800781 -24.21875 8.03125 -24.1875 C 8.257812 -24.164062 8.644531 -24.300781 9.1875 -24.59375 C 9.53125 -24.789062 9.878906 -24.921875 10.234375 -24.984375 C 10.585938 -25.054688 10.957031 -25.035156 11.34375 -24.921875 C 11.625 -24.816406 11.8125 -24.65625 11.90625 -24.4375 C 12.007812 -24.226562 11.976562 -24.019531 11.8125 -23.8125 C 11.664062 -23.644531 11.519531 -23.488281 11.375 -23.34375 C 11.226562 -23.195312 11.085938 -23.050781 10.953125 -22.90625 C 10.691406 -22.59375 10.582031 -22.335938 10.625 -22.140625 C 10.664062 -21.941406 10.859375 -21.742188 11.203125 -21.546875 C 12.773438 -20.566406 14.429688 -19.804688 16.171875 -19.265625 C 16.242188 -19.234375 16.304688 -19.21875 16.359375 -19.21875 C 16.703125 -19.101562 17.03125 -18.972656 17.34375 -18.828125 C 17.425781 -18.773438 17.492188 -18.691406 17.546875 -18.578125 C 17.609375 -18.460938 17.640625 -18.347656 17.640625 -18.234375 C 17.640625 -18.109375 17.601562 -18 17.53125 -17.90625 C 17.457031 -17.8125 17.382812 -17.71875 17.3125 -17.625 C 16.957031 -17.425781 16.59375 -17.328125 16.21875 -17.328125 C 15.851562 -17.328125 15.484375 -17.382812 15.109375 -17.5 C 13.597656 -17.863281 12.140625 -18.40625 10.734375 -19.125 C 9.734375 -19.675781 9.050781 -19.90625 8.6875 -19.8125 C 8.332031 -19.726562 7.859375 -19.203125 7.265625 -18.234375 C 3.515625 -12.484375 1.40625 -6.1875 0.9375 0.65625 C 0.6875 3.832031 1.113281 6.9375 2.21875 9.96875 C 2.769531 11.539062 3.648438 12.9375 4.859375 14.15625 C 6.828125 16.039062 9.128906 16.578125 11.765625 15.765625 C 13.054688 15.359375 14.257812 14.832031 15.375 14.1875 C 18.09375 12.5 20.457031 10.425781 22.46875 7.96875 C 25.039062 4.75 27.09375 1.253906 28.625 -2.515625 C 29.695312 -5.035156 30.660156 -8.039062 31.515625 -11.53125 C 32.378906 -15.019531 33 -18.734375 33.375 -22.671875 C 33.757812 -26.609375 33.765625 -30.488281 33.390625 -34.3125 C 33.023438 -38.132812 32.125 -41.617188 30.6875 -44.765625 C 29.257812 -47.921875 27.160156 -50.46875 24.390625 -52.40625 Z M 30.703125 1 C 29.554688 3.351562 28.21875 5.550781 26.6875 7.59375 C 25.15625 9.632812 23.390625 11.5 21.390625 13.1875 C 19.609375 14.707031 17.644531 15.9375 15.5 16.875 C 13.320312 17.832031 11.0625 18.25 8.71875 18.125 C 4.9375 17.9375 2.054688 16.234375 0.078125 13.015625 C -1.140625 10.910156 -1.90625 8.65625 -2.21875 6.25 C -2.550781 4.15625 -2.632812 2.078125 -2.46875 0.015625 C -2.300781 -2.046875 -1.953125 -4.082031 -1.421875 -6.09375 C -0.160156 -10.976562 1.929688 -15.46875 4.859375 -19.5625 C 5.054688 -19.84375 5.269531 -20.125 5.5 -20.40625 C 5.664062 -20.664062 5.847656 -20.914062 6.046875 -21.15625 C 6.304688 -21.5625 6.28125 -21.929688 5.96875 -22.265625 C 5.757812 -22.503906 5.554688 -22.71875 5.359375 -22.90625 C 5.054688 -23.21875 4.75 -23.550781 4.4375 -23.90625 C 2.90625 -25.625 1.640625 -27.460938 0.640625 -29.421875 C -0.359375 -31.378906 -1.015625 -33.515625 -1.328125 -35.828125 C -1.992188 -40.691406 -0.863281 -45.070312 2.0625 -48.96875 C 3.5 -50.863281 5.144531 -52.4375 7 -53.6875 C 8.863281 -54.945312 10.953125 -55.828125 13.265625 -56.328125 C 16.472656 -56.953125 19.46875 -56.867188 22.25 -56.078125 C 25.039062 -55.296875 27.597656 -53.734375 29.921875 -51.390625 C 32.273438 -48.890625 34.023438 -45.921875 35.171875 -42.484375 C 36.316406 -39.046875 36.972656 -35.351562 37.140625 -31.40625 C 37.304688 -27.457031 37.117188 -23.492188 36.578125 -19.515625 C 36.035156 -15.535156 35.238281 -11.78125 34.1875 -8.25 C 33.144531 -4.71875 31.984375 -1.632812 30.703125 1 Z M 30.703125 1 "/></g></g></g><g fill="#ffde59" fill-opacity="1"><g transform="translate(243.323073, 198.303548)"><g><path d="M 18.15625 12 C 18.8125 12.03125 19.46875 12.007812 20.125 11.9375 C 20.78125 11.863281 21.410156 11.695312 22.015625 11.4375 C 23.828125 10.570312 24.445312 9.210938 23.875 7.359375 C 23.5625 6.410156 23.070312 5.539062 22.40625 4.75 C 21.632812 3.769531 20.789062 2.863281 19.875 2.03125 C 18.957031 1.195312 18.007812 0.394531 17.03125 -0.375 C 16.488281 -0.769531 15.976562 -0.753906 15.5 -0.328125 C 14 0.785156 12.648438 2.035156 11.453125 3.421875 C 10.929688 4.046875 10.488281 4.726562 10.125 5.46875 C 9.34375 7.300781 9.726562 8.847656 11.28125 10.109375 C 12.019531 10.679688 12.835938 11.097656 13.734375 11.359375 C 15.171875 11.785156 16.644531 12 18.15625 12 Z M 19.046875 -2.8125 C 19.109375 -2.5625 19.21875 -2.351562 19.375 -2.1875 C 19.53125 -2.03125 19.695312 -1.898438 19.875 -1.796875 C 19.988281 -1.703125 20.101562 -1.609375 20.21875 -1.515625 C 20.675781 -1.128906 21.128906 -0.722656 21.578125 -0.296875 C 22.441406 0.460938 23.273438 1.210938 24.078125 1.953125 C 25.253906 3.035156 26.195312 4.289062 26.90625 5.71875 C 27.625 7.144531 27.8125 8.53125 27.46875 9.875 C 27.125 11.226562 26.066406 12.304688 24.296875 13.109375 C 23.554688 13.453125 22.769531 13.679688 21.9375 13.796875 C 20.332031 13.992188 18.71875 14.070312 17.09375 14.03125 C 15.476562 13.988281 13.882812 13.753906 12.3125 13.328125 C 11.539062 13.117188 10.796875 12.84375 10.078125 12.5 C 9.367188 12.164062 8.726562 11.726562 8.15625 11.1875 C 6.113281 9.320312 5.6875 7.140625 6.875 4.640625 C 7.351562 3.679688 7.960938 2.796875 8.703125 1.984375 C 9.910156 0.722656 11.195312 -0.441406 12.5625 -1.515625 C 13.257812 -2.066406 13.597656 -2.460938 13.578125 -2.703125 C 13.566406 -2.953125 13.171875 -3.304688 12.390625 -3.765625 C 10.992188 -4.703125 9.582031 -5.632812 8.15625 -6.5625 C 7.40625 -7.039062 6.65625 -7.523438 5.90625 -8.015625 C 5.457031 -8.328125 5.003906 -8.628906 4.546875 -8.921875 C 3.398438 -9.640625 2.269531 -10.394531 1.15625 -11.1875 C -0.101562 -12.082031 -1.285156 -13.054688 -2.390625 -14.109375 C -3.492188 -15.160156 -4.457031 -16.351562 -5.28125 -17.6875 C -7 -20.457031 -7.632812 -23.285156 -7.1875 -26.171875 C -6.75 -29.054688 -5.492188 -31.835938 -3.421875 -34.515625 C -1.347656 -37.203125 1.257812 -39.617188 4.40625 -41.765625 C 7.5625 -43.910156 10.976562 -45.644531 14.65625 -46.96875 C 18.332031 -48.300781 21.992188 -49.066406 25.640625 -49.265625 C 29.296875 -49.472656 32.648438 -48.957031 35.703125 -47.71875 C 38.765625 -46.488281 41.285156 -44.375 43.265625 -41.375 C 43.617188 -40.820312 43.914062 -40.238281 44.15625 -39.625 C 44.394531 -39.019531 44.515625 -38.375 44.515625 -37.6875 C 44.515625 -37 44.203125 -36.566406 43.578125 -36.390625 C 43.148438 -36.273438 42.753906 -36.28125 42.390625 -36.40625 C 42.035156 -36.539062 41.769531 -36.753906 41.59375 -37.046875 C 41.5625 -37.117188 41.535156 -37.210938 41.515625 -37.328125 C 41.484375 -37.398438 41.46875 -37.460938 41.46875 -37.515625 C 40.15625 -41.140625 38.207031 -43.722656 35.625 -45.265625 C 33.050781 -46.816406 30.140625 -47.546875 26.890625 -47.453125 C 23.640625 -47.359375 20.316406 -46.648438 16.921875 -45.328125 C 13.535156 -44.003906 10.351562 -42.320312 7.375 -40.28125 C 4.394531 -38.238281 1.898438 -36.039062 -0.109375 -33.6875 C -2.128906 -31.34375 -3.378906 -29.066406 -3.859375 -26.859375 C -4.359375 -24.109375 -3.890625 -21.5625 -2.453125 -19.21875 C -1.304688 -17.238281 0.15625 -15.550781 1.9375 -14.15625 C 3.300781 -13.070312 4.695312 -12.039062 6.125 -11.0625 C 7.414062 -10.226562 8.691406 -9.410156 9.953125 -8.609375 C 11.691406 -7.503906 13.410156 -6.378906 15.109375 -5.234375 C 15.585938 -4.878906 16.035156 -4.71875 16.453125 -4.75 C 16.867188 -4.78125 17.304688 -4.953125 17.765625 -5.265625 C 20.023438 -6.628906 22.253906 -7.882812 24.453125 -9.03125 C 26.660156 -10.175781 27.882812 -10.492188 28.125 -9.984375 C 28.375 -9.472656 28.03125 -8.867188 27.09375 -8.171875 C 24.875 -7.003906 22.75 -5.691406 20.71875 -4.234375 C 20.601562 -4.179688 20.492188 -4.109375 20.390625 -4.015625 C 19.847656 -3.734375 19.398438 -3.332031 19.046875 -2.8125 Z M 19.046875 -2.8125 "/></g></g></g><g clip-path="url(#d8cafd93de)"><g clip-path="url(#444adb9022)"><g clip-path="url(#f93a2bb57c)"><path fill="#ffde59" d="M 192.585938 99.6875 C 198.191406 98.542969 203.847656 97.714844 209.546875 97.207031 C 215.25 96.695312 220.960938 96.507812 226.683594 96.640625 C 232.40625 96.773438 238.101562 97.222656 243.777344 97.996094 C 249.449219 98.769531 255.0625 99.855469 260.613281 101.257812 C 266.167969 102.660156 271.625 104.371094 276.988281 106.386719 C 282.351562 108.402344 287.585938 110.710938 292.691406 113.3125 C 297.796875 115.917969 302.746094 118.796875 307.53125 121.953125 C 312.316406 125.113281 316.910156 128.527344 321.316406 132.203125 L 321.152344 131.394531 C 317.011719 127.988281 312.710938 124.804688 308.246094 121.835938 C 299.964844 116.320312 291.234375 111.65625 282.050781 107.839844 C 272.867188 104.027344 263.40625 101.136719 253.664062 99.171875 C 243.566406 97.117188 233.371094 96.097656 223.070312 96.109375 C 212.773438 96.121094 202.582031 97.164062 192.496094 99.242188 C 182.40625 101.285156 172.625 104.3125 163.148438 108.335938 C 153.671875 112.359375 144.695312 117.292969 136.210938 123.132812 C 128.019531 128.757812 120.445312 135.125 113.492188 142.230469 C 106.535156 149.335938 100.328125 157.050781 94.871094 165.371094 C 91.960938 169.835938 89.296875 174.441406 86.871094 179.191406 L 87.035156 180 C 89.648438 174.898438 92.53125 169.960938 95.695312 165.1875 C 98.855469 160.410156 102.273438 155.828125 105.945312 151.4375 C 109.617188 147.042969 113.523438 142.871094 117.664062 138.921875 C 121.800781 134.96875 126.148438 131.261719 130.699219 127.796875 C 135.253906 124.332031 139.984375 121.132812 144.894531 118.203125 C 149.800781 115.269531 154.859375 112.621094 160.066406 110.253906 C 165.273438 107.890625 170.59375 105.824219 176.03125 104.058594 C 181.46875 102.292969 186.984375 100.835938 192.585938 99.6875 Z M 192.585938 99.6875 " fill-opacity="1" fill-rule="nonzero"/></g></g></g></svg>